<svg xmlns="http://www.w3.org/2000/svg" viewBox="0 0 320 300" width="320" height="300" fill="none" role="presentation"><defs><filter id="sh" x="-14%" y="-14%" width="128%" height="134%" color-interpolation-filters="sRGB"><feDropShadow dx="0" dy="4" stdDeviation="6" flood-color="#3E0F12" flood-opacity="0.22"/></filter><linearGradient id="pp" x1="0" y1="0" x2=".8" y2="1"><stop offset="0" stop-color="#FDFAF1"/><stop offset=".5" stop-color="#FAF3E4"/><stop offset="1" stop-color="#F2E6CE"/></linearGradient><clipPath id="pc0"><path d="M 24,60 L 122,42 L 122,250 L 24,268 Z"/></clipPath><clipPath id="pc1"><path d="M 122,42 L 210,54 L 210,262 L 122,250 Z"/></clipPath><clipPath id="pc2"><path d="M 210,54 L 296,40 L 296,248 L 210,262 Z"/></clipPath><linearGradient id="fold" x1="0" y1="0" x2="1" y2="0"><stop offset="0" stop-color="#3E0F12"/><stop offset=".55" stop-color="#5C1418"/><stop offset="1" stop-color="#5C1418"/></linearGradient><linearGradient id="face" x1="0" y1="0" x2="0" y2="1"><stop offset="0" stop-color="#7E1D1D"/><stop offset="1" stop-color="#5C1418"/></linearGradient><pattern id="pj" width="26" height="26" patternUnits="userSpaceOnUse"><g stroke="#D3B463" stroke-width="0.8" fill="none" opacity="0.09"><circle cx="0" cy="0" r="13"/><circle cx="26" cy="0" r="13"/><circle cx="0" cy="26" r="13"/><circle cx="26" cy="26" r="13"/><circle cx="13" cy="13" r="13"/></g></pattern></defs><g filter="url(#sh)"><path d="M 24,60 L 122,42 L 210,54 L 296,40 L 296,248 L 210,262 L 122,250 L 24,268 Z" transform="translate(0,3)" fill="#3E0F12"/><path d="M 24,60 L 122,42 L 122,250 L 24,268 Z" fill="url(#face)"/><path d="M 24,60 L 122,42 L 122,250 L 24,268 Z" fill="url(#pj)"/><path d="M 122,42 L 210,54 L 210,262 L 122,250 Z" fill="url(#fold)"/><path d="M 122,42 L 210,54 L 210,262 L 122,250 Z" fill="url(#pj)"/><path d="M 210,54 L 296,40 L 296,248 L 210,262 Z" fill="url(#face)"/><path d="M 210,54 L 296,40 L 296,248 L 210,262 Z" fill="url(#pj)"/><line x1="122" y1="42" x2="122" y2="250" stroke="#3E0F12" stroke-width="1.3" opacity=".85"/><line x1="210" y1="54" x2="210" y2="262" stroke="#3E0F12" stroke-width="1.3" opacity=".85"/><path d="M 210,54 L 226,51.8 L 226,259.8 L 210,262 Z" fill="#3E0F12" opacity=".45"/><g clip-path="url(#pc0)"><g transform="translate(24,60) rotate(-10.41)"><path d="M 0,44 L 0,25.52 L 0,25.52 A 7.63,7.63 0 0 0 8.18,15.71 A 5.28,5.28 0 0 0 16.96,9.92 A 5.07,5.07 0 0 0 27.09,9.97 A 5.18,5.18 0 0 0 35.66,15.71 A 7.63,7.63 0 0 0 43.84,25.52 L 43.84,44 Z" transform="translate(27.9,22)" fill="none" stroke="#D3B463" stroke-width="1.3" opacity=".95"/><line x1="23.91" y1="80" x2="75.73" y2="80" stroke="#D3B463" stroke-width="1.1" opacity=".85"/><line x1="23.91" y1="98" x2="35.87" y2="98" stroke="#E8A020" stroke-width="2" stroke-linecap="round" opacity=".95"/><line x1="42.84" y1="98" x2="75.73" y2="98" stroke="#FAF3E4" stroke-width="1.3" stroke-linecap="round" opacity=".55"/><line x1="23.91" y1="123" x2="35.87" y2="123" stroke="#E8A020" stroke-width="2" stroke-linecap="round" opacity=".95"/><line x1="42.84" y1="123" x2="75.73" y2="123" stroke="#FAF3E4" stroke-width="1.3" stroke-linecap="round" opacity=".55"/><line x1="23.91" y1="148" x2="35.87" y2="148" stroke="#E8A020" stroke-width="2" stroke-linecap="round" opacity=".95"/><line x1="42.84" y1="148" x2="75.73" y2="148" stroke="#FAF3E4" stroke-width="1.3" stroke-linecap="round" opacity=".55"/><line x1="23.91" y1="173" x2="35.87" y2="173" stroke="#E8A020" stroke-width="2" stroke-linecap="round" opacity=".95"/><line x1="42.84" y1="173" x2="75.73" y2="173" stroke="#FAF3E4" stroke-width="1.3" stroke-linecap="round" opacity=".55"/><path d="M 49.82,192 l 4.5,4.5 l -4.5,4.5 l -4.5,-4.5 Z" fill="#D3B463" opacity=".85"/></g></g><g clip-path="url(#pc1)"><g transform="translate(122,42) rotate(7.77)"><path d="M 0,44 L 0,25.52 L 0,25.52 A 6.98,6.98 0 0 0 7.41,16.62 A 4.62,4.62 0 0 0 15.12,11.61 A 4.52,4.52 0 0 0 24.15,11.66 A 4.71,4.71 0 0 0 31.91,16.93 A 6.72,6.72 0 0 0 39.08,25.52 L 39.08,44 Z" transform="translate(24.87,22)" fill="none" stroke="#D3B463" stroke-width="1.3" opacity=".95"/><line x1="21.32" y1="80" x2="67.5" y2="80" stroke="#D3B463" stroke-width="1.1" opacity=".85"/><line x1="21.32" y1="103" x2="31.97" y2="103" stroke="#E8A020" stroke-width="2" stroke-linecap="round" opacity=".95"/><line x1="38.19" y1="103" x2="67.5" y2="103" stroke="#FAF3E4" stroke-width="1.3" stroke-linecap="round" opacity=".55"/><line x1="21.32" y1="128" x2="31.97" y2="128" stroke="#E8A020" stroke-width="2" stroke-linecap="round" opacity=".95"/><line x1="38.19" y1="128" x2="67.5" y2="128" stroke="#FAF3E4" stroke-width="1.3" stroke-linecap="round" opacity=".55"/><line x1="21.32" y1="153" x2="31.97" y2="153" stroke="#E8A020" stroke-width="2" stroke-linecap="round" opacity=".95"/><line x1="38.19" y1="153" x2="67.5" y2="153" stroke="#FAF3E4" stroke-width="1.3" stroke-linecap="round" opacity=".55"/><line x1="21.32" y1="178" x2="31.97" y2="178" stroke="#E8A020" stroke-width="2" stroke-linecap="round" opacity=".95"/><line x1="38.19" y1="178" x2="67.5" y2="178" stroke="#FAF3E4" stroke-width="1.3" stroke-linecap="round" opacity=".55"/><path d="M 44.41,192 l 4.5,4.5 l -4.5,4.5 l -4.5,-4.5 Z" fill="#D3B463" opacity=".85"/></g></g><g clip-path="url(#pc2)"><g transform="translate(210,54) rotate(-9.25)"><path d="M 0,44 L 0,25.52 L 0,25.52 A 6.76,6.76 0 0 0 7.27,16.79 A 4.53,4.53 0 0 0 14.83,11.88 A 4.53,4.53 0 0 0 23.87,11.97 A 4.53,4.53 0 0 0 31.3,17.1 A 6.59,6.59 0 0 0 38.34,25.52 L 38.34,44 Z" transform="translate(24.4,22)" fill="none" stroke="#D3B463" stroke-width="1.3" opacity=".95"/><line x1="20.91" y1="80" x2="66.22" y2="80" stroke="#D3B463" stroke-width="1.1" opacity=".85"/><line x1="20.91" y1="108" x2="31.37" y2="108" stroke="#E8A020" stroke-width="2" stroke-linecap="round" opacity=".95"/><line x1="37.47" y1="108" x2="66.22" y2="108" stroke="#FAF3E4" stroke-width="1.3" stroke-linecap="round" opacity=".55"/><line x1="20.91" y1="133" x2="31.37" y2="133" stroke="#E8A020" stroke-width="2" stroke-linecap="round" opacity=".95"/><line x1="37.47" y1="133" x2="66.22" y2="133" stroke="#FAF3E4" stroke-width="1.3" stroke-linecap="round" opacity=".55"/><line x1="20.91" y1="158" x2="31.37" y2="158" stroke="#E8A020" stroke-width="2" stroke-linecap="round" opacity=".95"/><line x1="37.47" y1="158" x2="66.22" y2="158" stroke="#FAF3E4" stroke-width="1.3" stroke-linecap="round" opacity=".55"/><line x1="20.91" y1="183" x2="31.37" y2="183" stroke="#E8A020" stroke-width="2" stroke-linecap="round" opacity=".95"/><line x1="37.47" y1="183" x2="66.22" y2="183" stroke="#FAF3E4" stroke-width="1.3" stroke-linecap="round" opacity=".55"/><path d="M 43.57,192 l 4.5,4.5 l -4.5,4.5 l -4.5,-4.5 Z" fill="#D3B463" opacity=".85"/></g></g><path d="M 24,60 L 122,42 L 210,54 L 296,40 L 296,248 L 210,262 L 122,250 L 24,268 Z" fill="none" stroke="#E4D3B4" stroke-width="1" opacity=".85"/></g></svg>
