<svg xmlns="http://www.w3.org/2000/svg" viewBox="0 0 780 900" width="780" height="900" preserveAspectRatio="xMidYMid slice" fill="none" role="presentation"><style>
  .cl-a, .cl-b { will-change: transform }
  .cl-a { animation: drift 92s linear infinite }
  .cl-b { animation: drift 148s linear infinite }
  .sun { animation: glow 14s ease-in-out infinite }
  .shimmer { animation: ripple 7s ease-in-out infinite }
  .palm { transform-box: fill-box; transform-origin: 50% 100%;
           animation: sway 9s ease-in-out infinite }
  @keyframes drift { to { transform: translateX(-780px) } }
  @keyframes glow  { 0%,100% { opacity: .82 } 50% { opacity: 1 } }
  @keyframes ripple{ 0%,100% { opacity: .7; transform: translateX(0) }
                      50% { opacity: 1; transform: translateX(5.6px) } }
  @keyframes sway  { 0%,100% { transform: rotate(-.6deg) }
                      50% { transform: rotate(.6deg) } }
  /* A guest who asks for less motion gets a still photograph of the same
     place, which is the whole point of drawing it as a scene rather than as
     an effect. */
  @media (prefers-reduced-motion: reduce) {
    .cl-a, .cl-b, .sun, .shimmer, .palm { animation: none }
  }
</style><defs>
  <linearGradient id="sky" x1="0" y1="0" x2="0" y2="1">
    <stop offset="0" stop-color="#F4D3AB"/><stop offset=".42" stop-color="#F2CEA4"/>
    <stop offset=".70" stop-color="#EFC79C"/><stop offset=".92" stop-color="#EBBE92"/>
  </linearGradient>
  <radialGradient id="sun" cx=".5" cy="1" r=".62">
    <stop offset="0" stop-color="#FDF0D2" stop-opacity=".55"/>
    <stop offset=".42" stop-color="#F6D7A8" stop-opacity=".22"/>
    <stop offset="1" stop-color="#F6D7A8" stop-opacity="0"/>
  </radialGradient>
  <linearGradient id="haze" x1="0" y1="384" x2="0" y2="700"
      gradientUnits="userSpaceOnUse">
    <stop offset="0" stop-color="#F4DDC6" stop-opacity="0"/>
    <stop offset=".5" stop-color="#F4DDC6" stop-opacity=".38"/>
    <stop offset="1" stop-color="#F4DDC6" stop-opacity=".72"/>
  </linearGradient>
  <linearGradient id="pool" x1="0" y1="0" x2="0" y2="1">
    <stop offset="0" stop-color="#EFE8F2"/><stop offset=".34" stop-color="#EFE8F2"/>
    <stop offset="1" stop-color="#E1D6DF"/>
  </linearGradient>
  <linearGradient id="deck" x1="0" y1="0" x2="0" y2="1">
    <stop offset="0" stop-color="#CBBBC2" stop-opacity=".40"/>
    <stop offset=".26" stop-color="#B8A7AC" stop-opacity=".58"/>
    <stop offset=".72" stop-color="#B8A7AC" stop-opacity=".16"/>
    <stop offset="1" stop-color="#B8A7AC" stop-opacity="0"/>
  </linearGradient>
  <linearGradient id="fade" x1="0" y1="0" x2="0" y2="1">
    <stop offset="0" stop-color="#F4D3AB"/>
    <stop offset="1" stop-color="#F4D3AB" stop-opacity="0"/>
  </linearGradient>
</defs><rect width="780" height="900" fill="url(#sky)"/><g class="sun"><ellipse cx="265.2" cy="630" rx="234" ry="360" fill="url(#sun)"/></g><rect width="780" height="270" fill="url(#fade)"/><g class="cl-a"><ellipse cx="74.79" cy="234" rx="69.32" ry="4.5" fill="#F6D7A8" opacity="0.12"/><ellipse cx="277.21" cy="234" rx="116.07" ry="4.5" fill="#F6D7A8" opacity="0.12"/><ellipse cx="408.73" cy="234" rx="111.91" ry="4.5" fill="#F6D7A8" opacity="0.12"/><ellipse cx="612.92" cy="234" rx="113.44" ry="4.5" fill="#F6D7A8" opacity="0.12"/><ellipse cx="778.95" cy="234" rx="87.17" ry="4.5" fill="#F6D7A8" opacity="0.12"/><g transform="translate(780,0)"><ellipse cx="74.79" cy="234" rx="69.32" ry="4.5" fill="#F6D7A8" opacity="0.12"/><ellipse cx="277.21" cy="234" rx="116.07" ry="4.5" fill="#F6D7A8" opacity="0.12"/><ellipse cx="408.73" cy="234" rx="111.91" ry="4.5" fill="#F6D7A8" opacity="0.12"/><ellipse cx="612.92" cy="234" rx="113.44" ry="4.5" fill="#F6D7A8" opacity="0.12"/><ellipse cx="778.95" cy="234" rx="87.17" ry="4.5" fill="#F6D7A8" opacity="0.12"/></g></g><g class="cl-b"><ellipse cx="67" cy="342" rx="124.92" ry="7.65" fill="#F6D7A8" opacity="0.08"/><ellipse cx="232.82" cy="342" rx="163.14" ry="7.65" fill="#F6D7A8" opacity="0.08"/><ellipse cx="421.88" cy="342" rx="181.02" ry="7.65" fill="#F6D7A8" opacity="0.08"/><ellipse cx="663.42" cy="342" rx="175.82" ry="7.65" fill="#F6D7A8" opacity="0.08"/><ellipse cx="766.87" cy="342" rx="141.15" ry="7.65" fill="#F6D7A8" opacity="0.08"/><g transform="translate(780,0)"><ellipse cx="67" cy="342" rx="124.92" ry="7.65" fill="#F6D7A8" opacity="0.08"/><ellipse cx="232.82" cy="342" rx="163.14" ry="7.65" fill="#F6D7A8" opacity="0.08"/><ellipse cx="421.88" cy="342" rx="181.02" ry="7.65" fill="#F6D7A8" opacity="0.08"/><ellipse cx="663.42" cy="342" rx="175.82" ry="7.65" fill="#F6D7A8" opacity="0.08"/><ellipse cx="766.87" cy="342" rx="141.15" ry="7.65" fill="#F6D7A8" opacity="0.08"/></g></g><path d="M -182.81,418.11 C -159.66,418.11 -159.66,402.32 -136.5,402.32 C -119.44,402.32 -119.44,390.04 -102.38,390.04 C -93.84,390.04 -93.84,395.3 -85.31,395.3 C -68.25,395.3 -68.25,399.07 -51.19,399.07 C -34.19,399.07 -34.19,400.83 -17.18,400.83 C -0.12,400.83 -0.12,415.91 16.94,415.91 C 34,415.91 34,423.98 51.07,423.98 C 68.13,423.98 68.13,441.31 85.19,441.31 C 102.19,441.31 102.19,449.29 119.19,449.29 C 136.26,449.29 136.26,456.88 153.32,456.88 C 170.38,456.88 170.38,464.51 187.44,464.51 C 205.6,464.51 205.6,471.97 223.76,471.97 C 243.45,471.97 243.45,478.94 263.13,478.94 C 282.87,478.94 282.87,485.87 302.62,485.87 C 322.3,485.87 322.3,492.58 341.98,492.58 C 361.72,492.58 361.72,501.4 381.47,501.4 C 401.15,501.4 401.15,487.32 420.83,487.32 C 440.58,487.32 440.58,468.41 460.32,468.41 C 480,468.41 480,451.62 499.69,451.62 C 519.43,451.62 519.43,429.6 539.18,429.6 C 558.86,429.6 558.86,413.68 578.54,413.68 C 598.28,413.68 598.28,392.67 618.03,392.67 C 637.71,392.67 637.71,376.83 657.39,376.83 C 677.14,376.83 677.14,352.19 696.88,352.19 C 716.56,352.19 716.56,330.34 736.25,330.34 C 755.99,330.34 755.99,310.3 775.73,310.3 C 795.42,310.3 795.42,301.83 815.1,301.83 C 834.84,301.83 834.84,290.61 854.59,290.61 C 874.27,290.61 874.27,282.32 893.95,282.32 C 913.7,282.32 913.7,272.27 933.44,272.27 C 953.12,272.27 953.12,264.73 972.81,264.73 C 992.55,264.73 992.55,259.42 1012.29,259.42 C 1031.98,259.42 1031.98,269.6 1051.66,269.6 C 1071.4,269.6 1071.4,245.61 1091.15,245.61 C 1110.83,245.61 1110.83,243.63 1130.51,243.63 C 1150.26,243.63 1150.26,247.27 1170,247.27 C 1170,247.27 1170,245.08 1170,245.08 L 858,906 L -78,906 Z" fill="#837076" fill-opacity="0.14" stroke="#837076" stroke-opacity="0.32" stroke-width="2"/><path d="M -182.81,445.91 C -159.66,445.91 -159.66,444.16 -136.5,444.16 C -126.75,444.16 -126.75,425.74 -117,425.74 C -101.16,425.74 -101.16,431 -85.31,431 C -68.25,431 -68.25,443.15 -51.19,443.15 C -34.19,443.15 -34.19,458.72 -17.18,458.72 C -0.12,458.72 -0.12,479.86 16.94,479.86 C 34,479.86 34,502.32 51.07,502.32 C 68.13,502.32 68.13,521.05 85.19,521.05 C 102.19,521.05 102.19,538.98 119.19,538.98 C 136.26,538.98 136.26,559.07 153.32,559.07 C 170.38,559.07 170.38,561.31 187.44,561.31 C 205.6,561.31 205.6,561.31 223.76,561.31 C 243.45,561.31 243.45,561.31 263.13,561.31 C 282.87,561.31 282.87,551.66 302.62,551.66 C 322.3,551.66 322.3,538.2 341.98,538.2 C 361.72,538.2 361.72,516.09 381.47,516.09 C 401.15,516.09 401.15,488.94 420.83,488.94 C 440.58,488.94 440.58,470.61 460.32,470.61 C 480,470.61 480,454.29 499.69,454.29 C 519.43,454.29 519.43,431.44 539.18,431.44 C 558.86,431.44 558.86,416.53 578.54,416.53 C 598.28,416.53 598.28,395.34 618.03,395.34 C 637.71,395.34 637.71,380.43 657.39,380.43 C 677.14,380.43 677.14,354.99 696.88,354.99 C 716.56,354.99 716.56,332.01 736.25,332.01 C 755.99,332.01 755.99,312.23 775.73,312.23 C 795.42,312.23 795.42,304.03 815.1,304.03 C 834.84,304.03 834.84,293.24 854.59,293.24 C 874.27,293.24 874.27,284.16 893.95,284.16 C 913.7,284.16 913.7,273.9 933.44,273.9 C 953.12,273.9 953.12,269.38 972.81,269.38 C 992.55,269.38 992.55,269.11 1012.29,269.11 C 1031.98,269.11 1031.98,273.68 1051.66,273.68 C 1071.4,273.68 1071.4,247.67 1091.15,247.67 C 1110.83,247.67 1110.83,243.63 1130.51,243.63 C 1150.26,243.63 1150.26,247.27 1170,247.27 C 1170,247.27 1170,245.08 1170,245.08 L 858,906 L -78,906 Z" fill="#897A7F" fill-opacity="0.21" stroke="#897A7F" stroke-opacity="0.3" stroke-width="2"/><path d="M -182.81,524.6 C -159.66,524.6 -159.66,505.3 -136.5,505.3 C -115.78,505.3 -115.78,489.51 -95.06,489.51 C -90.19,489.51 -90.19,494.77 -85.31,494.77 C -68.25,494.77 -68.25,514.6 -51.19,514.6 C -34.19,514.6 -34.19,510.65 -17.18,510.65 C -0.12,510.65 -0.12,520.78 16.94,520.78 C 34,520.78 34,542.32 51.07,542.32 C 68.13,542.32 68.13,561.44 85.19,561.44 C 102.19,561.44 102.19,578.68 119.19,578.68 C 136.26,578.68 136.26,578.68 153.32,578.68 C 170.38,578.68 170.38,578.68 187.44,578.68 C 205.6,578.68 205.6,578.68 223.76,578.68 C 243.45,578.68 243.45,570.92 263.13,570.92 C 282.87,570.92 282.87,558.06 302.62,558.06 C 322.3,558.06 322.3,544.73 341.98,544.73 C 361.72,544.73 361.72,520.56 381.47,520.56 C 401.15,520.56 401.15,497.58 420.83,497.58 C 440.58,497.58 440.58,479.69 460.32,479.69 C 480,479.69 480,469.99 499.69,469.99 C 519.43,469.99 519.43,451.66 539.18,451.66 C 558.86,451.66 558.86,442.05 578.54,442.05 C 598.28,442.05 598.28,432.32 618.03,432.32 C 637.71,432.32 637.71,421.83 657.39,421.83 C 677.14,421.83 677.14,404.33 696.88,404.33 C 716.56,404.33 716.56,374.16 736.25,374.16 C 755.99,374.16 755.99,346.83 775.73,346.83 C 795.42,346.83 795.42,340.43 815.1,340.43 C 834.84,340.43 834.84,328.41 854.59,328.41 C 874.27,328.41 874.27,324.11 893.95,324.11 C 913.7,324.11 913.7,318.63 933.44,318.63 C 953.12,318.63 953.12,307.23 972.81,307.23 C 992.55,307.23 992.55,302.84 1012.29,302.84 C 1031.98,302.84 1031.98,292.67 1051.66,292.67 C 1071.4,292.67 1071.4,282.23 1091.15,282.23 C 1110.83,282.23 1110.83,274.68 1130.51,274.68 C 1150.26,274.68 1150.26,273.9 1170,273.9 C 1170,273.9 1170,271.7 1170,271.7 L 858,906 L -78,906 Z" fill="#66555F" fill-opacity="0.27" stroke="#66555F" stroke-opacity="0.26" stroke-width="2"/><rect y="382" width="780" height="518" fill="url(#haze)"/><g opacity="0.42"><path d="M -20,656 L -20,600 C -11.19,603.67 5.09,603.67 13.9,604.89 C 21.94,602.85 36.78,602.85 44.82,605.56 C 50.43,560.83 60.77,560.83 66.37,615.57 C 73.2,582.48 85.8,582.48 92.63,614.78 C 101.74,610.38 118.54,610.38 127.65,612.39 C 131.92,583.93 139.8,583.93 144.07,623.63 C 148.31,606.72 156.15,606.72 160.39,622.2 C 170.27,621.67 188.52,621.67 198.4,622.23 C 204.62,581 216.11,581 222.33,626.35 C 231.03,623.49 247.11,623.49 255.81,629.6 C 266.07,622.1 285.01,622.1 295.26,624.85 C 300.49,584.22 310.14,584.22 315.37,630.25 C 324.31,617.49 340.84,617.49 349.78,628.41 C 354.49,613.39 363.19,613.39 367.9,632.76 C 374.05,598.28 385.4,598.28 391.55,636.35 C 398.59,616.28 411.59,616.28 418.63,632.64 C 426.18,631.96 440.11,631.96 447.65,633.22 C 451.6,589.03 458.87,589.03 462.82,635.29 C 468.42,607 478.75,607 484.35,632.42 C 490.7,616.05 502.43,616.05 508.78,633.65 C 514.37,598.63 524.68,598.63 530.26,629.26 C 538.48,621.36 553.64,621.36 561.86,628.36 C 572.49,630.4 592.11,630.4 602.74,629.94 C 606.83,608.99 614.37,608.99 618.46,630.86 C 624.67,626.31 636.15,626.31 642.36,632.48 C 646.38,610.14 653.8,610.14 657.82,628.81 C 662.91,590.1 672.32,590.1 677.41,633.16 C 683.49,600.49 694.73,600.49 700.81,630.11 C 704.9,605.96 712.46,605.96 716.56,636 C 723.51,602.95 736.36,602.95 743.31,628.59 C 753.14,616.6 771.29,616.6 781.13,629.37 C 791.91,629.75 811.82,629.75 822.6,631.95 L 822.6,656 Z" fill="#736169"/><path d="M 29.36,598.85 C 36.82,597.87 45.59,598.13 51.29,612.13 C 43.83,600.61 35.5,601.78 29.36,598.85 Z" fill="#736169"/><path d="M 29.36,598.85 C 37.61,588.91 47.31,591.5 53.61,607.85 C 45.37,595.81 36.15,595.18 29.36,598.85 Z" fill="#736169"/><path d="M 29.36,598.85 C 31.84,586.99 34.75,590.08 36.64,601.9 C 34.16,593.95 31.4,592.44 29.36,598.85 Z" fill="#736169"/><path d="M 29.36,598.85 C 26.12,583.29 22.3,587.34 19.82,602.85 C 23.06,592.42 26.69,590.43 29.36,598.85 Z" fill="#736169"/><path d="M 29.36,598.85 C 21.02,588.8 11.21,591.41 4.83,607.95 C 13.17,595.78 22.49,595.14 29.36,598.85 Z" fill="#736169"/><path d="M 29.36,598.85 C 20.97,597.75 11.1,598.04 4.68,613.8 C 13.07,600.83 22.45,602.15 29.36,598.85 Z" fill="#736169"/><path d="M 135.86,579.93 C 142.25,579.09 149.77,579.31 154.65,591.31 C 148.26,581.44 141.12,582.44 135.86,579.93 Z" fill="#736169"/><path d="M 135.86,579.93 C 141.24,573.44 147.57,575.13 151.69,585.81 C 146.31,577.95 140.29,577.54 135.86,579.93 Z" fill="#736169"/><path d="M 135.86,579.93 C 138.85,565.59 142.37,569.32 144.65,583.62 C 141.66,574.01 138.32,572.17 135.86,579.93 Z" fill="#736169"/><path d="M 135.86,579.93 C 133.37,568.01 130.45,571.11 128.55,583 C 131.03,575.01 133.81,573.48 135.86,579.93 Z" fill="#736169"/><path d="M 135.86,579.93 C 128.87,571.51 120.65,573.7 115.31,587.56 C 122.29,577.36 130.1,576.82 135.86,579.93 Z" fill="#736169"/><path d="M 135.86,579.93 C 127.89,578.89 118.53,579.16 112.44,594.12 C 120.4,581.81 129.3,583.06 135.86,579.93 Z" fill="#736169"/><path d="M 239.07,619.49 C 248.44,618.26 259.47,618.58 266.64,636.18 C 257.27,621.7 246.79,623.17 239.07,619.49 Z" fill="#736169"/><path d="M 239.07,619.49 C 247.59,609.21 257.62,611.88 264.14,628.79 C 255.62,616.35 246.09,615.69 239.07,619.49 Z" fill="#736169"/><path d="M 239.07,619.49 C 242.08,605.06 245.62,608.81 247.92,623.2 C 244.91,613.52 241.55,611.68 239.07,619.49 Z" fill="#736169"/><path d="M 239.07,619.49 C 236.41,606.74 233.28,610.06 231.25,622.76 C 233.91,614.22 236.88,612.59 239.07,619.49 Z" fill="#736169"/><path d="M 239.07,619.49 C 231.52,610.39 222.65,612.75 216.88,627.72 C 224.42,616.71 232.85,616.13 239.07,619.49 Z" fill="#736169"/><path d="M 239.07,619.49 C 229.11,618.18 217.39,618.52 209.78,637.23 C 219.73,621.83 230.87,623.4 239.07,619.49 Z" fill="#736169"/><path d="M 358.84,609.39 C 365.07,608.57 372.4,608.79 377.17,620.49 C 370.94,610.86 363.97,611.84 358.84,609.39 Z" fill="#736169"/><path d="M 358.84,609.39 C 364.76,602.26 371.71,604.12 376.24,615.85 C 370.32,607.21 363.71,606.76 358.84,609.39 Z" fill="#736169"/><path d="M 358.84,609.39 C 361.24,597.88 364.07,600.87 365.9,612.35 C 363.5,604.64 360.82,603.16 358.84,609.39 Z" fill="#736169"/><path d="M 358.84,609.39 C 356.53,598.32 353.81,601.2 352.05,612.24 C 354.36,604.82 356.94,603.4 358.84,609.39 Z" fill="#736169"/><path d="M 358.84,609.39 C 352.6,601.86 345.25,603.82 340.47,616.21 C 346.72,607.09 353.7,606.61 358.84,609.39 Z" fill="#736169"/><path d="M 358.84,609.39 C 351.61,608.44 343.1,608.69 337.57,622.28 C 344.8,611.1 352.89,612.23 358.84,609.39 Z" fill="#736169"/><path d="M 455.24,585.03 C 460.23,584.37 466.11,584.55 469.93,593.93 C 464.93,586.21 459.35,586.99 455.24,585.03 Z" fill="#736169"/><path d="M 455.24,585.03 C 459.65,579.7 464.85,581.09 468.23,589.85 C 463.81,583.4 458.87,583.07 455.24,585.03 Z" fill="#736169"/><path d="M 455.24,585.03 C 457.09,576.14 459.27,578.45 460.69,587.32 C 458.84,581.36 456.76,580.22 455.24,585.03 Z" fill="#736169"/><path d="M 455.24,585.03 C 453.22,575.36 450.84,577.87 449.3,587.52 C 451.32,581.03 453.57,579.8 455.24,585.03 Z" fill="#736169"/><path d="M 455.24,585.03 C 451,579.92 446.01,581.25 442.77,589.66 C 447.01,583.47 451.75,583.15 455.24,585.03 Z" fill="#736169"/><path d="M 455.24,585.03 C 449.68,584.3 443.15,584.49 438.9,594.92 C 444.45,586.34 450.66,587.21 455.24,585.03 Z" fill="#736169"/><path d="M 546.06,617.36 C 551.45,616.65 557.79,616.83 561.91,626.96 C 556.52,618.63 550.5,619.47 546.06,617.36 Z" fill="#736169"/><path d="M 546.06,617.36 C 550.76,611.69 556.28,613.17 559.87,622.48 C 555.18,615.63 549.93,615.27 546.06,617.36 Z" fill="#736169"/><path d="M 546.06,617.36 C 547.71,609.46 549.65,611.51 550.91,619.39 C 549.26,614.09 547.42,613.08 546.06,617.36 Z" fill="#736169"/><path d="M 546.06,617.36 C 543.91,607.04 541.38,609.73 539.73,620.01 C 541.89,613.1 544.29,611.78 546.06,617.36 Z" fill="#736169"/><path d="M 546.06,617.36 C 541.22,611.52 535.53,613.04 531.83,622.64 C 536.67,615.57 542.08,615.2 546.06,617.36 Z" fill="#736169"/><path d="M 546.06,617.36 C 539.77,616.53 532.37,616.75 527.56,628.56 C 533.85,618.84 540.88,619.83 546.06,617.36 Z" fill="#736169"/><path d="M 650.09,606.14 C 657.53,605.17 666.27,605.42 671.96,619.39 C 664.52,607.89 656.21,609.06 650.09,606.14 Z" fill="#736169"/><path d="M 650.09,606.14 C 655.99,599.03 662.92,600.88 667.43,612.58 C 661.54,603.97 654.95,603.52 650.09,606.14 Z" fill="#736169"/><path d="M 650.09,606.14 C 653.24,591.06 656.94,594.98 659.34,610.02 C 656.2,599.91 652.68,597.98 650.09,606.14 Z" fill="#736169"/><path d="M 650.09,606.14 C 646.82,590.47 642.98,594.55 640.48,610.17 C 643.75,599.67 647.4,597.67 650.09,606.14 Z" fill="#736169"/><path d="M 650.09,606.14 C 642.82,597.38 634.28,599.66 628.72,614.07 C 635.99,603.47 644.11,602.91 650.09,606.14 Z" fill="#736169"/><path d="M 650.09,606.14 C 643.05,605.22 634.78,605.46 629.4,618.67 C 636.43,607.8 644.3,608.91 650.09,606.14 Z" fill="#736169"/><path d="M 729.94,598.95 C 737.21,597.99 745.77,598.24 751.33,611.91 C 744.05,600.66 735.93,601.81 729.94,598.95 Z" fill="#736169"/><path d="M 729.94,598.95 C 735.08,592.74 741.14,594.35 745.08,604.57 C 739.93,597.05 734.18,596.66 729.94,598.95 Z" fill="#736169"/><path d="M 729.94,598.95 C 732.67,585.84 735.88,589.25 737.97,602.32 C 735.24,593.53 732.19,591.86 729.94,598.95 Z" fill="#736169"/><path d="M 729.94,598.95 C 727.67,588.08 725,590.9 723.27,601.74 C 725.53,594.46 728.07,593.07 729.94,598.95 Z" fill="#736169"/><path d="M 729.94,598.95 C 724.07,591.87 717.16,593.71 712.67,605.35 C 718.54,596.79 725.1,596.34 729.94,598.95 Z" fill="#736169"/><path d="M 729.94,598.95 C 722.13,597.92 712.95,598.19 706.98,612.85 C 714.78,600.79 723.51,602.01 729.94,598.95 Z" fill="#736169"/><path d="M 44,613 Q 94.16,588.28 120,574 Q 145.84,588.28 196,613 Q 120,603 44,613 Z" fill="#968893"/><rect x="118.9" y="565" width="2.2" height="10" fill="#968893"/><rect x="59.2" y="608" width="3.4" height="32" fill="#968893"/><rect x="98.11" y="608" width="3.4" height="32" fill="#968893"/><rect x="141.89" y="608" width="3.4" height="32" fill="#968893"/><rect x="180.8" y="608" width="3.4" height="32" fill="#968893"/><rect x="78.96" y="616" width="51.68" height="24" fill="#968893"/><path d="M 197.14,617.85 Q 229,612.85 260.86,617.85 L 243.04,599.19 L 214.96,599.19 Z" fill="#968893"/><rect x="204.7" y="614.85" width="48.6" height="33.15" fill="#968893"/><rect x="211.02" y="645.6" width="38.65" height="1.4" fill="#F4D3AB" opacity=".55"/><rect x="206.33" y="639" width="4.05" height="5.6" rx="1" fill="#F4D3AB" opacity="0.82"/><rect x="230.97" y="639" width="4.02" height="5.6" rx="1" fill="#F4D3AB" opacity="0.85"/><path d="M 240.25,603 Q 331,597.5 421.75,603 L 373,573 L 289,573 Z" fill="#968893"/><rect x="262.75" y="600" width="136.5" height="48" fill="#968893"/><rect x="278.69" y="645.6" width="110.26" height="1.4" fill="#F4D3AB" opacity=".55"/><rect x="275.82" y="639" width="3.79" height="5.6" rx="1" fill="#F4D3AB" opacity="0.68"/><rect x="302.21" y="639" width="3.75" height="5.6" rx="1" fill="#F4D3AB" opacity="0.78"/><rect x="339.58" y="639" width="4.46" height="5.6" rx="1" fill="#F4D3AB" opacity="0.69"/><rect x="364.55" y="639" width="4.23" height="5.6" rx="1" fill="#F4D3AB" opacity="0.72"/><rect x="274.95" y="621.6" width="78.02" height="1.4" fill="#F4D3AB" opacity=".55"/><rect x="275.85" y="615" width="4.04" height="5.6" rx="1" fill="#F4D3AB" opacity="0.64"/><rect x="333.21" y="615" width="3.77" height="5.6" rx="1" fill="#F4D3AB" opacity="0.82"/><path d="M 424.05,593 Q 539,587.5 653.95,593 L 592.2,558 L 485.8,558 Z" fill="#968893"/><rect x="452.55" y="590" width="172.9" height="48" fill="#968893"/><path d="M 498.23,560 Q 552.38,556 606.53,560 L 578.98,539.44 L 525.78,539.44 Z" fill="#968893"/><path d="M 519.47,541.44 L 540.75,521.52 L 565.22,521.52 L 585.44,541.44 Z" fill="#968893"/><rect x="467.39" y="635.6" width="137.51" height="1.4" fill="#F4D3AB" opacity=".55"/><rect x="459.59" y="629" width="4.19" height="5.6" rx="1" fill="#F4D3AB" opacity="0.81"/><rect x="498.41" y="629" width="4.34" height="5.6" rx="1" fill="#F4D3AB" opacity="0.88"/><rect x="530.79" y="629" width="3.69" height="5.6" rx="1" fill="#F4D3AB" opacity="0.83"/><rect x="563.72" y="629" width="4.57" height="5.6" rx="1" fill="#F4D3AB" opacity="0.89"/><rect x="589.58" y="629" width="3.61" height="5.6" rx="1" fill="#F4D3AB" opacity="0.72"/><rect x="620.35" y="629" width="3.73" height="5.6" rx="1" fill="#F4D3AB" opacity="0.89"/><rect x="456.02" y="611.6" width="132.37" height="1.4" fill="#F4D3AB" opacity=".55"/><rect x="462.5" y="605" width="4.08" height="5.6" rx="1" fill="#F4D3AB" opacity="0.77"/><rect x="492.19" y="605" width="3.65" height="5.6" rx="1" fill="#F4D3AB" opacity="0.93"/><rect x="529.93" y="605" width="4.39" height="5.6" rx="1" fill="#F4D3AB" opacity="0.69"/><rect x="558.69" y="605" width="4.46" height="5.6" rx="1" fill="#F4D3AB" opacity="0.96"/><rect x="594.51" y="605" width="3.84" height="5.6" rx="1" fill="#F4D3AB" opacity="0.66"/><rect x="620.26" y="605" width="4.04" height="5.6" rx="1" fill="#F4D3AB" opacity="0.95"/><path d="M 663.19,605 Q 737,599.5 810.81,605 L 771.16,580 L 702.84,580 Z" fill="#968893"/><rect x="681.49" y="602" width="111.02" height="48" fill="#968893"/><rect x="686.09" y="647.6" width="85.27" height="1.4" fill="#F4D3AB" opacity=".55"/><rect x="693.09" y="641" width="3.67" height="5.6" rx="1" fill="#F4D3AB" opacity="0.78"/><rect x="724.13" y="641" width="4.5" height="5.6" rx="1" fill="#F4D3AB" opacity="0.75"/><rect x="761.35" y="641" width="4.1" height="5.6" rx="1" fill="#F4D3AB" opacity="0.66"/><rect x="795.92" y="641" width="3.67" height="5.6" rx="1" fill="#F4D3AB" opacity="0.85"/><rect x="684.06" y="623.6" width="70.5" height="1.4" fill="#F4D3AB" opacity=".55"/><rect x="689.9" y="617" width="4.35" height="5.6" rx="1" fill="#F4D3AB" opacity="0.82"/><rect x="724.59" y="617" width="3.91" height="5.6" rx="1" fill="#F4D3AB" opacity="0.87"/><rect x="789.73" y="617" width="4.48" height="5.6" rx="1" fill="#F4D3AB" opacity="0.73"/><g class="palm"><path d="M 27.72,648 C 31.28,607.68 42.97,585.84 43.78,564 L 46.46,564 C 47.27,585.84 35.58,607.68 32.28,648 Z" fill="#736169"/><path d="M 45.12,564 C 55.13,563.95 66.91,563.96 74.57,583.37 C 64.56,567.19 53.37,569.11 45.12,564 Z" fill="#736169"/><path d="M 45.12,564 C 35.67,563.95 24.55,563.96 17.32,582.28 C 26.77,567.01 37.34,568.82 45.12,564 Z" fill="#736169"/><path d="M 45.12,564 C 54.34,559.36 65.18,560.57 72.23,577.2 C 63.01,564.07 52.71,564.68 45.12,564 Z" fill="#736169"/><path d="M 45.12,564 C 36.56,559.69 26.49,560.81 19.95,576.25 C 28.5,564.07 38.07,564.63 45.12,564 Z" fill="#736169"/><path d="M 45.12,564 C 54.7,553.52 65.96,556.24 73.28,574.77 C 63.71,561.01 53.01,560.47 45.12,564 Z" fill="#736169"/><path d="M 45.12,564 C 37.69,555.87 28.95,557.98 23.27,572.36 C 30.7,561.68 39,561.26 45.12,564 Z" fill="#736169"/><path d="M 45.12,564 C 52.01,549.92 60.11,553.58 65.38,570.75 C 58.49,558.7 50.79,557.21 45.12,564 Z" fill="#736169"/><path d="M 45.12,564 C 38.24,549.94 30.15,553.59 24.88,570.74 C 31.76,558.71 39.45,557.22 45.12,564 Z" fill="#736169"/><path d="M 45.12,564 C 48.97,546.52 53.51,551.07 56.45,568.6 C 52.6,556.8 48.29,554.57 45.12,564 Z" fill="#736169"/><path d="M 45.12,564 C 41.71,548.52 37.69,552.54 35.08,568.08 C 38.5,557.62 42.31,555.65 45.12,564 Z" fill="#736169"/><path d="M 45.12,564 C 45.12,548.35 45.12,552.42 45.12,567.18 C 45.12,557.4 45.12,555.31 45.12,564 Z" fill="#736169"/><ellipse cx="45.12" cy="565.85" rx="3.19" ry="2.35" fill="#736169"/></g><g class="palm"><path d="M 70.37,642 C 68.83,613.2 60.86,597.6 61.44,582 L 63.36,582 C 63.94,597.6 71.9,613.2 73.63,642 Z" fill="#736169"/><path d="M 62.4,582 C 69.39,581.96 77.61,581.97 82.95,595.52 C 75.96,584.23 68.15,585.57 62.4,582 Z" fill="#736169"/><path d="M 62.4,582 C 55.52,581.96 47.42,581.97 42.16,595.31 C 49.04,584.19 56.73,585.51 62.4,582 Z" fill="#736169"/><path d="M 62.4,582 C 68.02,578.42 74.64,579.35 78.94,589.53 C 73.32,581.62 67.03,581.82 62.4,582 Z" fill="#736169"/><path d="M 62.4,582 C 55.25,577.46 46.85,578.64 41.38,591.57 C 48.53,581.52 56.52,581.77 62.4,582 Z" fill="#736169"/><path d="M 62.4,582 C 68.43,572.99 75.52,575.33 80.14,588.21 C 74.11,578.92 67.37,578.16 62.4,582 Z" fill="#736169"/><path d="M 62.4,582 C 57.33,574.42 51.36,576.39 47.48,587.22 C 52.56,579.41 58.22,578.77 62.4,582 Z" fill="#736169"/><path d="M 62.4,582 C 65.73,570.12 69.66,573.21 72.21,585.56 C 68.87,577.18 65.15,575.71 62.4,582 Z" fill="#736169"/><path d="M 62.4,582 C 59.65,572.22 56.42,574.76 54.32,584.93 C 57.07,578.03 60.14,576.82 62.4,582 Z" fill="#736169"/><path d="M 62.4,582 C 62.4,569.8 62.4,572.97 62.4,584.48 C 62.4,576.85 62.4,575.22 62.4,582 Z" fill="#736169"/><ellipse cx="62.4" cy="583.32" rx="2.28" ry="1.68" fill="#736169"/></g><g class="palm"><path d="M 193.33,646 C 197.1,598.96 209.17,573.48 210.11,548 L 213.25,548 C 214.19,573.48 202.12,598.96 198.67,646 Z" fill="#736169"/><path d="M 211.68,548 C 222.38,547.95 234.96,547.96 243.14,568.69 C 232.44,551.41 220.49,553.46 211.68,548 Z" fill="#736169"/><path d="M 211.68,548 C 202.24,547.95 191.14,547.96 183.92,566.26 C 193.36,551.01 203.91,552.82 211.68,548 Z" fill="#736169"/><path d="M 211.68,548 C 223.01,542.3 236.34,543.78 245.01,564.22 C 233.68,548.09 221.01,548.83 211.68,548 Z" fill="#736169"/><path d="M 211.68,548 C 199.73,541.99 185.68,543.55 176.54,565.1 C 188.49,548.1 201.84,548.88 211.68,548 Z" fill="#736169"/><path d="M 211.68,548 C 222.58,536.07 235.41,539.17 243.75,560.26 C 232.85,544.6 220.66,543.98 211.68,548 Z" fill="#736169"/><path d="M 211.68,548 C 202.02,537.42 190.65,540.17 183.26,558.87 C 192.92,544.98 203.72,544.44 211.68,548 Z" fill="#736169"/><path d="M 211.68,548 C 218.68,533.69 226.92,537.41 232.27,554.86 C 225.27,542.62 217.44,541.1 211.68,548 Z" fill="#736169"/><path d="M 211.68,548 C 205.07,534.48 197.28,538 192.23,554.48 C 198.84,542.91 206.23,541.48 211.68,548 Z" fill="#736169"/><path d="M 211.68,548 C 215.83,529.16 220.72,534.06 223.9,552.96 C 219.74,540.24 215.1,537.84 211.68,548 Z" fill="#736169"/><path d="M 211.68,548 C 207.34,528.31 202.24,533.43 198.92,553.18 C 203.26,539.89 208.11,537.38 211.68,548 Z" fill="#736169"/><path d="M 211.68,548 C 211.68,529.84 211.68,534.56 211.68,551.69 C 211.68,540.34 211.68,537.92 211.68,548 Z" fill="#736169"/><ellipse cx="211.68" cy="550.16" rx="3.72" ry="2.74" fill="#736169"/></g><g class="palm"><path d="M 230.15,652 C 227.59,619.36 215.3,601.68 215.95,584 L 218.13,584 C 218.78,601.68 231.08,619.36 233.85,652 Z" fill="#736169"/><path d="M 217.04,584 C 224.23,583.96 232.69,583.97 238.19,597.91 C 231,586.29 222.96,587.67 217.04,584 Z" fill="#736169"/><path d="M 217.04,584 C 209.56,583.96 200.77,583.97 195.05,598.46 C 202.53,586.38 210.88,587.81 217.04,584 Z" fill="#736169"/><path d="M 217.04,584 C 223.83,579.68 231.83,580.8 237.02,593.1 C 230.23,583.54 222.64,583.78 217.04,584 Z" fill="#736169"/><path d="M 217.04,584 C 209.35,579.11 200.31,580.38 194.43,594.3 C 202.12,583.48 210.71,583.76 217.04,584 Z" fill="#736169"/><path d="M 217.04,584 C 223.19,574.82 230.42,577.21 235.12,590.33 C 228.97,580.86 222.1,580.08 217.04,584 Z" fill="#736169"/><path d="M 217.04,584 C 211.85,576.25 205.75,578.27 201.79,589.34 C 206.97,581.35 212.77,580.7 217.04,584 Z" fill="#736169"/><path d="M 217.04,584 C 220.15,572.92 223.81,575.8 226.19,587.32 C 223.08,579.5 219.6,578.13 217.04,584 Z" fill="#736169"/><path d="M 217.04,584 C 213.96,573.03 210.34,575.88 207.98,587.29 C 211.06,579.54 214.5,578.19 217.04,584 Z" fill="#736169"/><path d="M 217.04,584 C 217.04,570.34 217.04,573.89 217.04,586.78 C 217.04,578.24 217.04,576.42 217.04,584 Z" fill="#736169"/><ellipse cx="217.04" cy="585.5" rx="2.58" ry="1.9" fill="#736169"/></g><g class="palm"><path d="M 395.66,642 C 399.31,600.72 411.28,578.36 412.1,556 L 414.86,556 C 415.68,578.36 403.71,600.72 400.34,642 Z" fill="#736169"/><path d="M 413.48,556 C 423.29,555.95 434.83,555.96 442.33,574.97 C 432.52,559.12 421.56,561.01 413.48,556 Z" fill="#736169"/><path d="M 413.48,556 C 404,555.95 392.85,555.96 385.6,574.34 C 395.08,559.02 405.67,560.84 413.48,556 Z" fill="#736169"/><path d="M 413.48,556 C 422,551.22 432.02,552.46 438.54,567.84 C 430.02,555.78 420.5,556.23 413.48,556 Z" fill="#736169"/><path d="M 413.48,556 C 405.39,551.46 395.87,552.64 389.68,567.24 C 397.77,555.79 406.82,556.22 413.48,556 Z" fill="#736169"/><path d="M 413.48,556 C 421.48,545.93 430.9,548.54 437.02,564.62 C 429.01,552.84 420.07,552.15 413.48,556 Z" fill="#736169"/><path d="M 413.48,556 C 403.97,544.03 392.78,547.14 385.51,566.25 C 395.02,552.24 405.65,551.42 413.48,556 Z" fill="#736169"/><path d="M 413.48,556 C 418.69,542.63 424.83,546.11 428.82,561.13 C 423.6,550.76 417.77,549.22 413.48,556 Z" fill="#736169"/><path d="M 413.48,556 C 408.18,542.4 401.94,545.94 397.88,561.22 C 403.18,550.67 409.11,549.1 413.48,556 Z" fill="#736169"/><path d="M 413.48,556 C 415.42,539.82 417.7,544.03 419.18,559.58 C 417.24,549.22 415.08,547.09 413.48,556 Z" fill="#736169"/><path d="M 413.48,556 C 411.35,538.26 408.85,542.87 407.23,559.93 C 409.35,548.57 411.73,546.23 413.48,556 Z" fill="#736169"/><ellipse cx="413.48" cy="557.89" rx="3.27" ry="2.41" fill="#736169"/></g><g class="palm"><path d="M 617.92,632 C 622.48,560 636.16,521 637.6,482 L 642.4,482 C 643.84,521 630.16,560 626.08,632 Z" fill="#736169"/><path d="M 640,482 C 657.85,481.91 678.85,481.93 692.5,516.53 C 674.65,487.69 654.7,491.11 640,482 Z" fill="#736169"/><path d="M 640,482 C 622.4,481.91 601.7,481.93 588.24,516.04 C 605.84,487.61 625.51,490.98 640,482 Z" fill="#736169"/><path d="M 640,482 C 656.38,474.52 675.66,476.47 688.19,506.05 C 671.8,482.58 653.49,483.83 640,482 Z" fill="#736169"/><path d="M 640,482 C 621.03,473.34 598.71,475.59 584.21,509.84 C 603.18,482.67 624.38,484.11 640,482 Z" fill="#736169"/><path d="M 640,482 C 655.21,467.22 673.1,471.06 684.73,499.78 C 669.52,478.21 652.53,477.71 640,482 Z" fill="#736169"/><path d="M 640,482 C 622.73,465.21 602.4,469.58 589.19,502.19 C 606.47,477.7 625.77,477.13 640,482 Z" fill="#736169"/><path d="M 640,482 C 653.61,458.61 669.62,464.69 680.02,495.61 C 666.41,473.6 651.21,471.36 640,482 Z" fill="#736169"/><path d="M 640,482 C 626.63,459.02 610.91,465 600.69,495.37 C 614.05,473.75 628.99,471.55 640,482 Z" fill="#736169"/><path d="M 640,482 C 649.14,452.43 659.9,460.12 666.89,491.44 C 657.75,470.09 647.53,466.49 640,482 Z" fill="#736169"/><path d="M 640,482 C 632.89,459.01 624.53,464.99 619.09,489.34 C 626.2,472.74 634.14,469.94 640,482 Z" fill="#736169"/><path d="M 640,482 C 642.64,454.98 645.75,462.01 647.77,487.82 C 645.13,470.65 642.17,467.08 640,482 Z" fill="#736169"/><path d="M 640,482 C 637.3,454.36 634.12,461.55 632.06,487.95 C 634.76,470.39 637.78,466.74 640,482 Z" fill="#736169"/><ellipse cx="640" cy="485.3" rx="5.7" ry="4.2" fill="#736169"/></g><g class="palm"><path d="M 645.61,646 C 642.65,603.76 628.15,580.88 628.99,558 L 631.81,558 C 632.65,580.88 647.16,603.76 650.39,646 Z" fill="#736169"/><path d="M 630.4,558 C 639.48,557.95 650.16,557.97 657.11,575.57 C 648.03,560.89 637.88,562.63 630.4,558 Z" fill="#736169"/><path d="M 630.4,558 C 620.77,557.95 609.44,557.96 602.08,576.63 C 611.71,561.07 622.47,562.91 630.4,558 Z" fill="#736169"/><path d="M 630.4,558 C 639.91,551.95 651.11,553.52 658.38,570.75 C 648.87,557.36 638.24,557.7 630.4,558 Z" fill="#736169"/><path d="M 630.4,558 C 620.65,551.8 609.18,553.41 601.72,571.06 C 611.47,557.34 622.37,557.69 630.4,558 Z" fill="#736169"/><path d="M 630.4,558 C 638.72,545.56 648.52,548.8 654.88,566.57 C 646.56,553.75 637.25,552.7 630.4,558 Z" fill="#736169"/><path d="M 630.4,558 C 622.19,545.74 612.53,548.92 606.26,566.45 C 614.46,553.81 623.64,552.77 630.4,558 Z" fill="#736169"/><path d="M 630.4,558 C 635.21,540.86 640.87,545.32 644.55,563.13 C 639.74,551.04 634.36,548.92 630.4,558 Z" fill="#736169"/><path d="M 630.4,558 C 625.39,540.14 619.49,544.79 615.66,563.35 C 620.67,550.75 626.27,548.54 630.4,558 Z" fill="#736169"/><path d="M 630.4,558 C 630.4,539.11 630.4,544.02 630.4,561.84 C 630.4,550.03 630.4,547.51 630.4,558 Z" fill="#736169"/><ellipse cx="630.4" cy="559.94" rx="3.34" ry="2.46" fill="#736169"/></g><g class="palm"><path d="M 753.44,644 C 757.43,598.88 770.51,574.44 771.42,550 L 774.42,550 C 775.33,574.44 762.24,598.88 758.56,644 Z" fill="#736169"/><path d="M 772.92,550 C 781.79,549.95 792.22,549.97 799,567.15 C 790.13,552.82 780.22,554.52 772.92,550 Z" fill="#736169"/><path d="M 772.92,550 C 761.52,549.94 748.1,549.96 739.38,572.06 C 750.78,553.63 763.53,555.82 772.92,550 Z" fill="#736169"/><path d="M 772.92,550 C 781.94,544.94 792.55,546.25 799.45,562.53 C 790.43,549.77 780.35,550.24 772.92,550 Z" fill="#736169"/><path d="M 772.92,550 C 762.03,543.89 749.21,545.48 740.88,565.13 C 751.78,549.72 763.95,550.29 772.92,550 Z" fill="#736169"/><path d="M 772.92,550 C 782.32,538.16 793.39,541.24 800.58,560.13 C 791.18,546.28 780.66,545.48 772.92,550 Z" fill="#736169"/><path d="M 772.92,550 C 764.5,539.41 754.6,542.16 748.17,559.07 C 756.58,546.67 765.99,545.95 772.92,550 Z" fill="#736169"/><path d="M 772.92,550 C 778.18,536.51 784.37,540.02 788.39,555.18 C 783.13,544.71 777.25,543.16 772.92,550 Z" fill="#736169"/><path d="M 772.92,550 C 767.16,535.22 760.38,539.07 755.97,555.68 C 761.73,544.21 768.17,542.5 772.92,550 Z" fill="#736169"/><path d="M 772.92,550 C 774.99,532.76 777.42,537.24 779,553.82 C 776.93,542.77 774.62,540.51 772.92,550 Z" fill="#736169"/><path d="M 772.92,550 C 771.08,534.64 768.91,538.63 767.51,553.4 C 769.35,543.56 771.4,541.55 772.92,550 Z" fill="#736169"/><ellipse cx="772.92" cy="552.07" rx="3.57" ry="2.63" fill="#736169"/></g><path d="M -20,678 C 124.8,662 405.6,659 577.2,669 C 686.4,676 741,671 800,679 L 800,900 L -20,900 Z" fill="url(#deck)"/><path d="M 148.2,768.4 C 150.23,755.28 176.63,748.72 225.37,747.08 C 306.6,744.62 381.74,744.62 438.6,746.26 C 505.62,748.72 568.57,752.82 619.34,761.02 C 601.06,776.6 529.98,784.8 387.83,787.26 C 255.83,789.72 164.45,782.34 148.2,768.4 Z" fill="url(#pool)"/><path d="M 172.57,753.64 C 249.74,745.44 402.05,742.98 473.12,746.26 C 546.23,749.54 601.06,755.28 631.52,761.84" stroke="#F2EAF3" stroke-width="2.08" fill="none" opacity=".9"/><g class="shimmer"><rect x="180.71" y="758.42" width="28.22" height="1.36" rx="1" fill="#FAF7FF" opacity="0.57"/><rect x="211.1" y="751.99" width="16.8" height="1.36" rx="1" fill="#FAF7FF" opacity="0.6"/><rect x="245.69" y="754.5" width="16.05" height="1.36" rx="1" fill="#FAF7FF" opacity="0.56"/><rect x="270.58" y="764.11" width="14.25" height="1.36" rx="1" fill="#FAF7FF" opacity="0.56"/><rect x="298.13" y="762.61" width="15.63" height="1.36" rx="1" fill="#FAF7FF" opacity="0.51"/><rect x="331.07" y="750.7" width="31.14" height="1.36" rx="1" fill="#FAF7FF" opacity="0.67"/><rect x="360.17" y="760.64" width="17.05" height="1.36" rx="1" fill="#FAF7FF" opacity="0.58"/><rect x="387.12" y="759.93" width="14.93" height="1.36" rx="1" fill="#FAF7FF" opacity="0.52"/><rect x="408.29" y="753.03" width="19.28" height="1.36" rx="1" fill="#FAF7FF" opacity="0.68"/><rect x="443.23" y="752.66" width="17.57" height="1.36" rx="1" fill="#FAF7FF" opacity="0.58"/><rect x="473" y="759.51" width="19.38" height="1.36" rx="1" fill="#FAF7FF" opacity="0.64"/></g><path d="M 156.32,771.68 C 280.2,781.52 452.82,783.16 607.15,770.04 C 601.06,776.6 529.98,784.8 387.83,787.26 C 255.83,789.72 164.45,782.34 156.32,771.68 Z" fill="#E1D6DF" opacity=".44"/><path d="M 188.92,752.82 L 196.83,752.82 L 193.94,764.3 L 191.81,764.3 Z" fill="#E1D6DF" opacity=".34"/><path d="M 177.68,744.62 Q 186.8,734.59 192.88,732.46 Q 198.96,734.59 208.08,744.62 Q 181.48,747.66 185.28,744.62 Q 189.08,747.66 192.88,744.62 Q 196.68,747.66 200.48,744.62 Q 204.28,747.66 208.08,744.62 Z" fill="#F2EAF3"/><rect x="192.16" y="732.46" width="1.44" height="17.48" fill="#7B6B74"/><path d="M 262.82,752.82 L 273.22,752.82 L 269.42,764.3 L 266.62,764.3 Z" fill="#E1D6DF" opacity=".34"/><path d="M 248.02,744.62 Q 260.02,731.42 268.02,728.62 Q 276.02,731.42 288.02,744.62 Q 253.02,748.62 258.02,744.62 Q 263.02,748.62 268.02,744.62 Q 273.02,748.62 278.02,744.62 Q 283.02,748.62 288.02,744.62 Z" fill="#F2EAF3"/><rect x="267.3" y="728.62" width="1.44" height="23" fill="#7B6B74"/><path d="M 344.67,752.82 L 353.82,752.82 L 350.48,764.3 L 348.01,764.3 Z" fill="#E1D6DF" opacity=".34"/><path d="M 331.65,744.62 Q 342.21,733 349.25,730.54 Q 356.29,733 366.85,744.62 Q 336.05,748.14 340.45,744.62 Q 344.85,748.14 349.25,744.62 Q 353.65,748.14 358.05,744.62 Q 362.45,748.14 366.85,744.62 Z" fill="#F2EAF3"/><rect x="348.53" y="730.54" width="1.44" height="20.24" fill="#7B6B74"/><path d="M 426.89,752.82 L 438.12,752.82 L 434.02,764.3 L 431,764.3 Z" fill="#E1D6DF" opacity=".34"/><path d="M 410.91,744.62 Q 423.87,730.36 432.51,727.34 Q 441.15,730.36 454.11,744.62 Q 416.31,748.94 421.71,744.62 Q 427.11,748.94 432.51,744.62 Q 437.91,748.94 443.31,744.62 Q 448.71,748.94 454.11,744.62 Z" fill="#F2EAF3"/><rect x="431.79" y="727.34" width="1.44" height="24.84" fill="#7B6B74"/><path d="M 511.19,752.82 L 520.35,752.82 L 517,764.3 L 514.54,764.3 Z" fill="#E1D6DF" opacity=".34"/><path d="M 498.17,744.62 Q 508.73,733 515.77,730.54 Q 522.81,733 533.37,744.62 Q 502.57,748.14 506.97,744.62 Q 511.37,748.14 515.77,744.62 Q 520.17,748.14 524.57,744.62 Q 528.97,748.14 533.37,744.62 Z" fill="#F2EAF3"/><rect x="515.05" y="730.54" width="1.44" height="20.24" fill="#7B6B74"/><path d="M 587.16,752.82 L 594.65,752.82 L 591.92,764.3 L 589.9,764.3 Z" fill="#E1D6DF" opacity=".34"/><path d="M 576.51,744.62 Q 585.15,735.12 590.91,733.1 Q 596.67,735.12 605.31,744.62 Q 580.11,747.5 583.71,744.62 Q 587.31,747.5 590.91,744.62 Q 594.51,747.5 598.11,744.62 Q 601.71,747.5 605.31,744.62 Z" fill="#F2EAF3"/><rect x="590.19" y="733.1" width="1.44" height="16.56" fill="#7B6B74"/><path d="M 232.12,742.89 L 228.44,733.69 L 233.96,732.77 L 238.56,742.89 Z" fill="#7B6B74"/><path d="M 232.12,742.89 L 256.96,741.05 L 256.96,744.73 L 232.12,746.57 Z" fill="#7B6B74"/><rect x="234.88" y="743.81" width="1.66" height="3.68" fill="#7B6B74"/><rect x="252.36" y="742.89" width="1.66" height="4.6" fill="#7B6B74"/><path d="M 316.06,742.86 L 319.74,733.66 L 314.22,732.74 L 309.62,742.86 Z" fill="#7B6B74"/><path d="M 316.06,742.86 L 291.22,741.02 L 291.22,744.7 L 316.06,746.54 Z" fill="#7B6B74"/><rect x="294.9" y="743.78" width="1.66" height="3.68" fill="#7B6B74"/><rect x="312.38" y="742.86" width="1.66" height="4.6" fill="#7B6B74"/><path d="M 348.45,741.42 L 344.77,732.22 L 350.29,731.3 L 354.89,741.42 Z" fill="#7B6B74"/><path d="M 348.45,741.42 L 373.29,739.58 L 373.29,743.26 L 348.45,745.1 Z" fill="#7B6B74"/><rect x="351.21" y="742.34" width="1.66" height="3.68" fill="#7B6B74"/><rect x="368.69" y="741.42" width="1.66" height="4.6" fill="#7B6B74"/><path d="M 432.06,741.46 L 435.74,732.26 L 430.22,731.34 L 425.62,741.46 Z" fill="#7B6B74"/><path d="M 432.06,741.46 L 407.22,739.62 L 407.22,743.3 L 432.06,745.14 Z" fill="#7B6B74"/><rect x="410.9" y="742.38" width="1.66" height="3.68" fill="#7B6B74"/><rect x="428.38" y="741.46" width="1.66" height="4.6" fill="#7B6B74"/><path d="M 469.37,743.29 L 465.69,734.09 L 471.21,733.17 L 475.81,743.29 Z" fill="#7B6B74"/><path d="M 469.37,743.29 L 494.21,741.45 L 494.21,745.13 L 469.37,746.97 Z" fill="#7B6B74"/><rect x="472.13" y="744.21" width="1.66" height="3.68" fill="#7B6B74"/><rect x="489.61" y="743.29" width="1.66" height="4.6" fill="#7B6B74"/><path d="M -20,900 C -7.58,887.79 8.98,887.68 21.41,890.26 C 32.23,885.09 46.67,888.32 57.5,895.88 C 74.63,877.43 97.48,877.03 114.61,890.35 C 123.42,884.6 135.15,878.93 143.95,893.73 C 153.04,885.5 165.16,883.98 174.25,891.69 C 185.62,886.68 200.77,888.35 212.14,895.93 C 228.33,878.54 249.91,881.57 266.1,895.87 C 274.01,885.92 284.56,882.13 292.47,894.34 C 308.44,884.75 329.72,886.44 345.68,895.13 C 356.04,886.04 369.85,885.48 380.2,895.4 C 392.9,878.95 409.84,888.85 422.54,893.13 C 431.09,882.27 442.48,880.03 451.02,891.73 C 465.76,888.92 485.42,876.06 500.16,893.87 C 511.41,885.27 526.42,877.83 537.67,891.44 C 555.06,885.58 578.25,888.91 595.64,895.47 C 605.04,883.55 617.57,885.29 626.97,893.11 C 636.18,877.96 648.46,882.98 657.67,894.72 C 670.58,887.67 687.79,884.51 700.69,891.69 C 714.45,882.71 732.79,885.75 746.55,895.86 C 756.63,882.7 770.08,885.61 780.16,889.42 C 790.97,877.17 805.38,887.73 816.19,889.23 C 833.29,887.96 856.08,886.13 873.18,894.5 C 884.94,890.44 900.62,892.18 912.38,897.8 C 928.46,896.18 949.9,896.36 965.98,898.1 L 965.98,900 Z" fill="#564754"/><g class="palm"><path d="M 18.71,892 C 30.07,763.36 67.38,693.68 69.95,624 L 78.53,624 C 81.1,693.68 43.8,763.36 33.29,892 Z" fill="#564754"/><path d="M 74.24,624 C 106.82,623.83 145.16,623.88 170.07,687.03 C 137.49,634.38 101.07,640.63 74.24,624 Z" fill="#564754"/><path d="M 74.24,624 C 43.88,623.85 8.17,623.89 -15.05,682.72 C 15.31,633.67 49.24,639.49 74.24,624 Z" fill="#564754"/><path d="M 74.24,624 C 104.01,610.41 139.04,613.94 161.81,667.7 C 132.03,625.06 98.76,627.32 74.24,624 Z" fill="#564754"/><path d="M 74.24,624 C 47.1,611.61 15.17,614.83 -5.59,663.84 C 21.56,624.96 51.89,627.03 74.24,624 Z" fill="#564754"/><path d="M 74.24,624 C 100.86,598.13 132.18,604.86 152.54,655.12 C 125.92,617.37 96.16,616.5 74.24,624 Z" fill="#564754"/><path d="M 74.24,624 C 43.69,594.31 7.75,602.03 -15.61,659.71 C 14.94,616.39 49.08,615.39 74.24,624 Z" fill="#564754"/><path d="M 74.24,624 C 94.51,589.16 118.35,598.22 133.85,644.27 C 113.58,611.48 90.93,608.15 74.24,624 Z" fill="#564754"/><path d="M 74.24,624 C 50.52,583.23 22.62,593.83 4.48,647.72 C 28.2,609.35 54.71,605.46 74.24,624 Z" fill="#564754"/><path d="M 74.24,624 C 90.29,572.11 109.16,585.6 121.43,640.57 C 105.39,603.1 87.45,596.78 74.24,624 Z" fill="#564754"/><path d="M 74.24,624 C 60.48,579.49 44.28,591.06 33.76,638.21 C 47.52,606.07 62.9,600.65 74.24,624 Z" fill="#564754"/><path d="M 74.24,624 C 79.32,572.02 85.3,585.54 89.18,635.19 C 84.1,602.17 78.42,595.3 74.24,624 Z" fill="#564754"/><path d="M 74.24,624 C 68.91,569.43 62.63,583.62 58.55,635.75 C 63.89,601.08 69.85,593.87 74.24,624 Z" fill="#564754"/><ellipse cx="74.24" cy="629.9" rx="10.18" ry="7.5" fill="#564754"/></g><g class="palm"><path d="M 743.4,916 C 735.32,764.32 693.35,682.16 696.38,600 L 706.5,600 C 709.53,682.16 751.49,764.32 760.6,916 Z" fill="#564754"/><path d="M 701.44,600 C 738.99,599.81 783.16,599.86 811.87,672.63 C 774.33,611.96 732.36,619.16 701.44,600 Z" fill="#564754"/><path d="M 701.44,600 C 668.31,599.83 629.32,599.88 603.98,664.1 C 637.12,610.55 674.15,616.91 701.44,600 Z" fill="#564754"/><path d="M 701.44,600 C 737.89,584.77 780.77,588.73 808.64,654.64 C 772.19,602.12 731.46,605.22 701.44,600 Z" fill="#564754"/><path d="M 701.44,600 C 661.22,583.19 613.9,587.56 583.14,660.3 C 623.36,602.34 668.31,605.76 701.44,600 Z" fill="#564754"/><path d="M 701.44,600 C 732.65,572.66 769.37,579.77 793.23,637.76 C 762.02,593.8 727.14,593.36 701.44,600 Z" fill="#564754"/><path d="M 701.44,600 C 669.46,571.99 631.85,579.27 607.39,638.68 C 639.37,593.65 675.11,593.2 701.44,600 Z" fill="#564754"/><path d="M 701.44,600 C 732.66,553.37 769.38,565.49 793.25,632.13 C 762.03,584.07 727.15,580.11 701.44,600 Z" fill="#564754"/><path d="M 701.44,600 C 674.58,559.87 642.98,570.3 622.44,627.65 C 649.3,586.3 679.32,582.89 701.44,600 Z" fill="#564754"/><path d="M 701.44,600 C 720.48,551.19 742.88,563.88 757.44,618.75 C 738.4,580.86 717.12,575.24 701.44,600 Z" fill="#564754"/><path d="M 701.44,600 C 678.28,540.63 651.04,556.07 633.33,622.8 C 656.49,576.72 682.37,569.88 701.44,600 Z" fill="#564754"/><path d="M 701.44,600 C 713.41,534.19 727.5,551.3 736.65,616.09 C 724.68,572.67 711.3,564.17 701.44,600 Z" fill="#564754"/><path d="M 701.44,600 C 692.26,549.55 681.47,562.67 674.45,612.34 C 683.62,579.05 693.88,572.54 701.44,600 Z" fill="#564754"/><path d="M 701.44,600 C 701.44,543.67 701.44,558.31 701.44,611.46 C 701.44,576.23 701.44,568.72 701.44,600 Z" fill="#564754"/><ellipse cx="701.44" cy="606.95" rx="12.01" ry="8.85" fill="#564754"/></g></g></svg>
