<svg xmlns="http://www.w3.org/2000/svg" viewBox="0 0 420 26" width="420" height="26" fill="none" role="presentation"><line x1="14" y1="13" x2="406" y2="13" stroke="#B08D3C" stroke-width=".9" opacity=".55"/><g fill="#B08D3C" opacity="0.9"><circle cx="30" cy="13" r="2.6"/><circle cx="45" cy="13" r="1.2"/><circle cx="60" cy="13" r="2.6"/><circle cx="75" cy="13" r="1.2"/><circle cx="90" cy="13" r="2.6"/><circle cx="105" cy="13" r="1.2"/><circle cx="120" cy="13" r="2.6"/><circle cx="135" cy="13" r="1.2"/><circle cx="150" cy="13" r="2.6"/><circle cx="165" cy="13" r="1.2"/><circle cx="180" cy="13" r="2.6"/></g><g fill="#B08D3C" opacity="0.9"><circle cx="236" cy="13" r="2.6"/><circle cx="251" cy="13" r="1.2"/><circle cx="266" cy="13" r="2.6"/><circle cx="281" cy="13" r="1.2"/><circle cx="296" cy="13" r="2.6"/><circle cx="311" cy="13" r="1.2"/><circle cx="326" cy="13" r="2.6"/><circle cx="341" cy="13" r="1.2"/><circle cx="356" cy="13" r="2.6"/><circle cx="371" cy="13" r="1.2"/><circle cx="386" cy="13" r="2.6"/></g><path d="M 210,5 L 217,13 L 210,21 L 203,13 Z" fill="#B08D3C"/><circle cx="210" cy="13" r="2" fill="#FBF6EA"/></svg>
